<?xml version="1.0" standalone="no"?>
<!DOCTYPE svg PUBLIC "-//W3C//DTD SVG 20010904//EN"
 "http://www.w3.org/TR/2001/REC-SVG-20010904/DTD/svg10.dtd">
<svg version="1.0" xmlns="http://www.w3.org/2000/svg"
 width="1204.000000pt" height="1280.000000pt" viewBox="0 0 1204.000000 1280.000000"
 preserveAspectRatio="xMidYMid meet">
<metadata>
Created by potrace 1.15, written by Peter Selinger 2001-2017
</metadata>
<g transform="translate(0.000000,1280.000000) scale(0.100000,-0.100000)"
fill="#000000" stroke="none">
<path d="M3155 12784 c-310 -14 -650 -66 -955 -145 -142 -37 -385 -115 -465
-150 -56 -24 -171 -69 -178 -69 -17 0 -443 -214 -567 -286 -74 -42 -156 -89
-181 -103 -60 -34 -218 -135 -540 -345 -217 -141 -316 -352 -250 -534 84 -229
315 -380 610 -399 129 -8 315 30 401 82 19 12 43 25 54 28 10 4 43 25 75 46
61 43 328 213 376 241 17 9 61 36 100 60 201 123 454 251 642 324 137 53 376
128 443 140 19 3 67 12 105 21 173 38 520 58 764 44 156 -9 402 -38 501 -59
147 -30 209 -45 335 -76 77 -19 154 -39 170 -44 17 -5 57 -16 90 -25 105 -28
117 -32 275 -88 85 -30 184 -65 220 -77 36 -12 74 -25 85 -30 11 -5 79 -32
150 -61 72 -28 144 -57 160 -64 29 -14 129 -54 455 -185 192 -78 531 -201 605
-220 17 -5 102 -31 190 -58 88 -27 192 -57 230 -66 80 -19 79 -19 200 -51 99
-26 398 -87 515 -105 41 -6 100 -15 130 -20 217 -37 458 -54 775 -54 330 0
491 12 755 55 173 28 497 103 555 128 11 5 47 17 80 26 80 22 357 125 369 136
6 5 15 9 22 9 18 0 369 168 484 232 25 13 90 50 145 80 55 31 156 90 225 133
69 43 134 83 145 89 22 13 48 29 252 163 201 131 276 215 321 354 19 56 15
177 -7 237 -48 132 -150 239 -290 307 -157 77 -331 101 -493 70 -143 -27 -217
-58 -357 -149 -523 -341 -824 -510 -1071 -603 -36 -14 -78 -31 -95 -38 -44
-19 -108 -41 -220 -73 -145 -43 -170 -49 -270 -66 -290 -49 -515 -63 -755 -47
-96 6 -202 16 -235 21 -33 5 -87 12 -120 16 -73 7 -188 27 -309 55 -200 44
-233 52 -271 64 -22 7 -58 17 -80 24 -203 57 -269 78 -395 122 -190 66 -278
98 -315 114 -125 54 -1047 419 -1085 429 -14 4 -34 11 -45 16 -37 17 -369 124
-480 155 -33 9 -89 25 -125 35 -328 94 -784 178 -1195 219 -104 11 -539 20
-660 15z"/>
<path d="M2950 10165 c-85 -7 -182 -18 -215 -23 -33 -6 -96 -16 -140 -22 -44
-6 -107 -18 -140 -25 -193 -44 -309 -72 -345 -85 -14 -5 -65 -20 -115 -35 -49
-15 -101 -31 -115 -35 -43 -15 -313 -121 -345 -135 -336 -155 -405 -191 -720
-375 -16 -9 -65 -39 -108 -66 -43 -27 -86 -54 -95 -59 -18 -11 -132 -85 -217
-140 -27 -17 -83 -53 -123 -79 -127 -82 -205 -178 -261 -319 -14 -35 -15 -184
-1 -192 6 -3 10 -14 10 -24 0 -37 67 -139 135 -206 79 -78 166 -128 285 -166
65 -20 95 -23 230 -23 235 -1 290 21 660 259 613 395 983 566 1440 666 313 68
825 76 1175 18 153 -25 470 -91 565 -118 204 -56 539 -162 605 -191 11 -5 54
-20 95 -35 41 -15 134 -51 205 -80 72 -29 195 -79 275 -111 80 -31 152 -61
160 -65 33 -18 303 -124 435 -171 77 -27 149 -53 160 -58 26 -12 142 -50 275
-90 58 -17 119 -36 135 -42 29 -10 51 -16 125 -37 216 -59 588 -142 760 -170
36 -6 92 -15 125 -20 33 -6 125 -17 205 -26 80 -9 181 -20 226 -25 108 -13
634 -13 759 0 199 21 361 42 430 56 39 8 96 19 129 25 137 23 491 123 601 169
11 4 70 27 130 50 123 47 151 60 315 136 168 79 304 150 421 220 31 19 59 34
62 34 6 0 282 171 556 345 189 120 276 214 328 355 15 41 17 206 3 215 -5 3
-10 15 -10 26 0 11 -11 37 -25 59 -14 22 -25 43 -25 47 -1 14 -94 111 -142
146 -54 40 -133 79 -221 109 -53 18 -87 22 -227 22 -154 1 -171 -1 -245 -26
-119 -40 -136 -50 -625 -363 -39 -25 -173 -106 -229 -138 -80 -45 -351 -179
-421 -208 -41 -16 -84 -34 -95 -39 -122 -52 -331 -117 -450 -140 -27 -6 -70
-14 -95 -20 -108 -24 -384 -50 -535 -50 -237 0 -545 28 -745 69 -204 41 -472
105 -492 117 -4 3 -34 12 -65 21 -97 26 -127 34 -158 42 -16 5 -68 23 -115 40
-47 17 -139 50 -205 72 -66 23 -183 67 -260 99 -156 65 -512 208 -620 250 -38
15 -117 46 -175 69 -176 71 -543 195 -715 241 -44 11 -91 25 -105 29 -45 15
-103 30 -230 60 -247 58 -352 79 -600 121 -73 12 -287 37 -431 50 -153 13
-625 11 -819 -5z"/>
<path d="M3170 7574 c-8 -2 -94 -8 -191 -14 -97 -5 -199 -14 -225 -19 -27 -6
-87 -15 -134 -22 -108 -15 -453 -92 -528 -118 -31 -11 -77 -25 -102 -31 -25
-7 -106 -34 -180 -61 -141 -52 -146 -54 -222 -88 -26 -12 -50 -21 -52 -21 -6
0 -143 -64 -234 -109 -254 -125 -507 -271 -792 -455 -36 -23 -100 -65 -143
-92 -132 -83 -213 -147 -254 -199 -48 -61 -93 -141 -93 -166 0 -10 -5 -21 -10
-24 -13 -8 -13 -172 0 -180 6 -3 10 -16 10 -28 1 -26 53 -119 95 -171 65 -79
206 -165 325 -199 119 -33 207 -39 330 -24 177 22 243 53 568 264 130 85 309
196 332 206 8 4 31 17 50 29 175 108 519 268 715 333 180 60 373 104 540 124
50 6 128 15 174 21 255 31 718 -9 1117 -96 111 -24 221 -50 245 -58 24 -7 111
-33 193 -56 82 -23 183 -54 225 -70 42 -15 126 -44 186 -64 61 -21 119 -41
130 -46 11 -4 36 -15 55 -23 19 -8 67 -27 105 -42 39 -15 84 -33 100 -40 35
-15 70 -29 295 -120 91 -37 184 -75 207 -86 23 -10 48 -19 55 -19 8 0 18 -4
24 -9 9 -8 74 -33 239 -91 50 -17 99 -35 110 -40 36 -16 398 -131 460 -146 11
-3 29 -9 40 -14 17 -8 114 -33 327 -85 216 -54 559 -116 798 -144 400 -48 876
-48 1210 -1 230 32 471 81 650 131 84 24 274 85 305 98 11 5 70 28 130 51 281
110 597 270 950 483 439 265 623 400 670 490 7 14 20 39 28 54 29 55 39 108
34 188 -6 101 -13 128 -50 190 -65 107 -141 175 -262 234 -230 112 -506 107
-730 -14 -52 -28 -187 -112 -415 -260 -89 -57 -267 -163 -370 -219 -75 -42
-139 -73 -325 -161 -109 -52 -302 -119 -490 -170 -85 -23 -314 -63 -430 -74
-145 -15 -448 -16 -610 -2 -162 14 -401 50 -535 81 -19 4 -80 18 -135 30 -55
12 -147 35 -205 52 -58 17 -143 42 -190 56 -47 13 -94 28 -105 33 -11 5 -56
20 -100 34 -109 35 -246 84 -267 95 -10 6 -23 10 -28 10 -6 0 -30 9 -53 19
-23 10 -84 35 -135 55 -52 20 -110 43 -130 52 -21 9 -46 20 -57 24 -11 4 -36
15 -57 24 -20 9 -42 16 -50 16 -8 0 -18 4 -24 8 -5 5 -25 15 -44 22 -19 7 -48
19 -65 26 -190 82 -714 276 -820 304 -16 4 -66 19 -110 33 -116 38 -293 87
-345 98 -25 4 -61 13 -80 18 -158 45 -548 121 -720 141 -41 5 -115 13 -165 19
-191 22 -707 39 -765 25z"/>
<path d="M2940 4934 c-229 -22 -492 -65 -640 -104 -19 -5 -62 -16 -95 -24
-160 -38 -509 -159 -675 -233 -80 -36 -247 -115 -280 -132 -354 -186 -494
-270 -930 -555 -188 -123 -245 -188 -309 -349 -13 -33 -15 -170 -2 -195 4 -9
21 -44 36 -77 68 -150 220 -268 415 -322 92 -25 329 -25 420 0 77 22 193 76
270 126 31 20 63 41 72 46 9 6 92 59 184 118 261 167 381 237 584 338 147 73
225 109 235 109 4 0 21 6 38 14 191 84 509 167 752 197 147 18 476 22 645 9
85 -6 225 -23 310 -36 143 -22 476 -94 595 -128 158 -46 210 -61 300 -91 220
-73 423 -148 675 -250 255 -103 283 -114 360 -148 19 -8 89 -36 155 -62 66
-25 131 -51 145 -57 14 -6 43 -17 65 -24 22 -7 85 -29 140 -49 176 -64 460
-153 615 -194 25 -7 59 -16 75 -21 103 -29 416 -99 565 -126 86 -15 119 -20
315 -48 497 -70 1094 -61 1525 23 25 5 72 14 105 20 117 21 358 84 485 128
157 53 280 99 358 134 35 16 66 29 69 29 4 0 85 39 318 152 28 14 70 36 95 50
25 14 72 40 105 58 33 18 78 43 100 55 55 30 367 223 490 303 55 35 125 80
155 100 77 49 182 158 210 217 42 87 50 118 50 194 0 83 -13 139 -47 193 -13
21 -23 41 -23 45 -1 15 -84 100 -140 143 -60 46 -117 75 -225 111 -62 21 -88
24 -230 24 -150 0 -165 -2 -244 -29 -99 -33 -148 -58 -296 -154 -435 -280
-582 -366 -835 -488 -243 -118 -511 -210 -735 -254 -33 -6 -78 -16 -100 -21
-77 -17 -343 -39 -481 -39 -387 0 -815 64 -1217 181 -78 22 -155 45 -172 49
-114 29 -573 194 -710 255 -33 15 -719 290 -775 311 -178 66 -339 121 -510
174 -276 85 -370 110 -675 180 -159 37 -492 92 -665 110 -58 6 -141 15 -184
21 -114 13 -677 9 -836 -7z"/>
<path d="M3120 2328 c-703 -28 -1409 -240 -2115 -636 -218 -122 -314 -182
-691 -427 -218 -143 -314 -278 -314 -445 0 -195 166 -392 402 -476 159 -56
377 -56 535 0 68 24 180 85 312 171 68 44 155 101 195 126 149 97 555 329 575
329 2 0 37 15 75 34 109 53 314 131 421 161 33 9 71 21 84 27 41 16 249 58
371 75 175 24 603 29 782 8 177 -20 366 -50 478 -76 130 -30 161 -37 210 -48
52 -11 68 -16 253 -70 76 -22 170 -52 210 -66 40 -15 92 -33 117 -40 93 -27
606 -227 795 -310 17 -7 55 -23 85 -35 30 -12 69 -28 85 -35 90 -38 273 -107
360 -136 55 -18 105 -36 110 -40 9 -6 269 -90 390 -126 28 -8 64 -18 80 -23
17 -5 109 -30 205 -55 167 -44 224 -57 315 -75 22 -4 83 -17 135 -28 115 -25
470 -77 635 -93 177 -17 647 -23 800 -10 243 22 567 71 710 108 33 9 76 19 95
23 58 13 310 89 359 109 25 11 101 40 169 65 67 26 168 68 225 95 56 27 131
62 167 78 79 36 272 140 450 245 112 65 115 67 182 110 31 21 59 38 62 38 10
0 363 233 418 276 80 63 168 185 168 235 0 10 4 21 10 24 14 9 12 174 -3 215
-62 169 -204 302 -390 365 -64 22 -200 45 -263 45 -59 0 -198 -24 -264 -46
-57 -19 -162 -75 -270 -146 -286 -185 -416 -266 -480 -301 -25 -13 -74 -41
-110 -62 -113 -65 -397 -204 -450 -220 -14 -4 -38 -13 -55 -20 -47 -21 -165
-61 -230 -80 -33 -9 -73 -21 -90 -26 -102 -30 -289 -64 -440 -80 -148 -16
-533 -16 -675 0 -142 16 -393 52 -402 57 -4 2 -26 8 -50 13 -170 34 -266 56
-353 83 -90 27 -187 55 -270 77 -16 5 -50 16 -75 25 -75 28 -272 97 -315 110
-35 11 -214 82 -270 106 -52 23 -433 177 -545 220 -25 10 -101 40 -170 68
-120 48 -422 155 -485 172 -16 4 -43 13 -60 20 -16 6 -52 18 -80 25 -27 7 -99
28 -160 45 -242 69 -471 121 -750 171 -122 21 -165 27 -385 55 -155 20 -587
31 -820 22z"/>
</g>
</svg>
