<?xml version="1.0" standalone="no"?>
<!DOCTYPE svg PUBLIC "-//W3C//DTD SVG 20010904//EN"
 "http://www.w3.org/TR/2001/REC-SVG-20010904/DTD/svg10.dtd">
<svg version="1.0" xmlns="http://www.w3.org/2000/svg"
 width="1280.000000pt" height="1280.000000pt" viewBox="0 0 1280.000000 1280.000000"
 preserveAspectRatio="xMidYMid meet">
<g transform="translate(0.000000,1280.000000) scale(0.100000,-0.100000)"
fill="#000000" stroke="none">
<path d="M6468 12618 c-496 -748 -1311 -2061 -1838 -2963 -1555 -2660 -2378
-4506 -2462 -5521 -22 -259 17 -664 93 -972 158 -648 486 -1231 969 -1726 374
-383 746 -651 1225 -882 495 -238 992 -377 1575 -441 231 -25 729 -25 960 0
593 65 1099 209 1605 457 430 211 779 456 1114 784 698 684 1083 1508 1142
2446 18 290 -6 518 -91 865 -325 1322 -1511 3658 -3370 6640 -346 554 -868
1365 -880 1365 -4 0 -23 -24 -42 -52z"/>
</g>
</svg>
